<svg xmlns="http://www.w3.org/2000/svg" viewBox="0 0 512 512" width="100%" height="100%">
  <defs>
    <pattern id="carbonBg" width="14" height="14" patternTransform="rotate(45 0 0)" patternUnits="userSpaceOnUse">
      <line x1="0" y1="0" x2="0" y2="14" stroke="#0a1410" stroke-width="4" />
      <line x1="7" y1="0" x2="7" y2="14" stroke="#040806" stroke-width="8" />
    </pattern>

    <linearGradient id="neonGreen" x1="0%" y1="0%" x2="0%" y2="100%">
      <stop offset="0%" stop-color="#4ade80" />
      <stop offset="35%" stop-color="#22c55e" />
      <stop offset="70%" stop-color="#10b981" />
      <stop offset="100%" stop-color="#059669" />
    </linearGradient>

    <filter id="electricGlow" x="-40%" y="-40%" width="180%" height="180%">
      <feGaussianBlur in="SourceGraphic" stdDeviation="6" result="blur1" />
      <feGaussianBlur in="SourceGraphic" stdDeviation="15" result="blur2" />
      <feGaussianBlur in="SourceGraphic" stdDeviation="28" result="blur3" />
      <feMerge>
        <feMergeNode in="blur3" />
        <feMergeNode in="blur2" />
        <feMergeNode in="blur1" />
        <feMergeNode in="SourceGraphic" />
      </feMerge>
    </filter>
  </defs>

  <rect width="512" height="512" rx="128" fill="#040706" />
  <rect width="512" height="512" rx="128" fill="url(#carbonBg)" />

  <rect x="36" y="36" width="440" height="440" rx="100" fill="none" stroke="url(#neonGreen)" stroke-width="12" opacity="0.4" filter="url(#electricGlow)" />
  <rect x="36" y="36" width="440" height="440" rx="100" fill="none" stroke="url(#neonGreen)" stroke-width="7" stroke-linecap="round" filter="url(#electricGlow)" />
  <rect x="36" y="36" width="440" height="440" rx="100" fill="none" stroke="#dcfce7" stroke-width="2.5" opacity="0.9" />

  <circle cx="256" cy="270" r="130" fill="#10b981" opacity="0.08" filter="url(#electricGlow)" />

  <g filter="url(#electricGlow)">
    <path d="M 226 122 L 226 98 C 226 86 238 76 256 76 C 274 76 286 86 286 98 L 286 122" fill="none" stroke="url(#neonGreen)" stroke-width="14" stroke-linecap="round" stroke-linejoin="round" />
    <path d="M 226 122 L 226 98 C 226 86 238 76 256 76 C 274 76 286 86 286 98 L 286 122" fill="none" stroke="#f0fdf4" stroke-width="4.5" stroke-linecap="round" stroke-linejoin="round" />

    <rect x="135" y="122" width="242" height="24" rx="12" fill="none" stroke="url(#neonGreen)" stroke-width="14" stroke-linecap="round" />
    <rect x="135" y="122" width="242" height="24" rx="12" fill="none" stroke="#f0fdf4" stroke-width="4.5" stroke-linecap="round" />

    <path d="M 162 152 L 184 402 C 187 422 202 436 222 436 L 290 436 C 310 436 325 422 328 402 L 350 152" fill="none" stroke="url(#neonGreen)" stroke-width="14" stroke-linecap="round" stroke-linejoin="round" />
    <path d="M 162 152 L 184 402 C 187 422 202 436 222 436 L 290 436 C 310 436 325 422 328 402 L 350 152" fill="none" stroke="#f0fdf4" stroke-width="4.5" stroke-linecap="round" stroke-linejoin="round" />

    <g transform="translate(256, 292) scale(0.92)">
      <path d="M -15 -68 L 15 -68 C 28 -68 38 -58 43 -48 L 52 -30" fill="none" stroke="url(#neonGreen)" stroke-width="12" stroke-linecap="round" stroke-linejoin="round" />
      <path d="M 38 -32 L 53 -28 L 58 -44" fill="none" stroke="url(#neonGreen)" stroke-width="12" stroke-linecap="round" stroke-linejoin="round" />
      
      <g transform="rotate(120)">
        <path d="M -15 -68 L 15 -68 C 28 -68 38 -58 43 -48 L 52 -30" fill="none" stroke="url(#neonGreen)" stroke-width="12" stroke-linecap="round" stroke-linejoin="round" />
        <path d="M 38 -32 L 53 -28 L 58 -44" fill="none" stroke="url(#neonGreen)" stroke-width="12" stroke-linecap="round" stroke-linejoin="round" />
      </g>

      <g transform="rotate(240)">
        <path d="M -15 -68 L 15 -68 C 28 -68 38 -58 43 -48 L 52 -30" fill="none" stroke="url(#neonGreen)" stroke-width="12" stroke-linecap="round" stroke-linejoin="round" />
        <path d="M 38 -32 L 53 -28 L 58 -44" fill="none" stroke="url(#neonGreen)" stroke-width="12" stroke-linecap="round" stroke-linejoin="round" />
      </g>

      <path d="M -15 -68 L 15 -68 C 28 -68 38 -58 43 -48 L 52 -30" fill="none" stroke="#f0fdf4" stroke-width="4" stroke-linecap="round" stroke-linejoin="round" />
      <path d="M 38 -32 L 53 -28 L 58 -44" fill="none" stroke="#f0fdf4" stroke-width="4" stroke-linecap="round" stroke-linejoin="round" />
      
      <g transform="rotate(120)">
        <path d="M -15 -68 L 15 -68 C 28 -68 38 -58 43 -48 L 52 -30" fill="none" stroke="#f0fdf4" stroke-width="4" stroke-linecap="round" stroke-linejoin="round" />
        <path d="M 38 -32 L 53 -28 L 58 -44" fill="none" stroke="#f0fdf4" stroke-width="4" stroke-linecap="round" stroke-linejoin="round" />
      </g>

      <g transform="rotate(240)">
        <path d="M -15 -68 L 15 -68 C 28 -68 38 -58 43 -48 L 52 -30" fill="none" stroke="#f0fdf4" stroke-width="4" stroke-linecap="round" stroke-linejoin="round" />
        <path d="M 38 -32 L 53 -28 L 58 -44" fill="none" stroke="#f0fdf4" stroke-width="4" stroke-linecap="round" stroke-linejoin="round" />
      </g>
    </g>
  </g>
</svg>
